<svg width="491" height="154" viewBox="0 0 491 154" fill="none" xmlns="http://www.w3.org/2000/svg">
<g clip-path="url(#clip0_9_88)">
<path d="M7.839 84H64.168C67.941 84 71.007 87.059 71.007 90.839V147.168C71.007 150.941 67.948 154.007 64.168 154.007H7.839C4.059 154 1 150.941 1 147.161V90.839C1 87.059 4.059 84 7.839 84Z" fill="#3178C6"/>
<path fill-rule="evenodd" clip-rule="evenodd" d="M44.337 139.643V146.482C45.443 147.056 46.801 147.483 48.299 147.77C49.797 148.057 51.442 148.197 53.087 148.197C54.732 148.197 56.23 148.05 57.735 147.735C59.24 147.42 60.472 146.902 61.564 146.23C62.67 145.502 63.615 144.592 64.161 143.36C64.707 142.128 65.134 140.763 65.134 138.985C65.134 137.739 64.945 136.661 64.574 135.702C64.203 134.743 63.671 133.924 62.936 133.238C62.236 132.51 61.431 131.873 60.472 131.327C59.513 130.781 58.421 130.207 57.189 129.689C56.286 129.318 55.551 128.961 54.725 128.611C54.011 128.254 53.402 127.897 52.947 127.547C52.443 127.176 52.058 126.798 51.785 126.399C51.512 125.986 51.372 125.538 51.372 125.034C51.372 124.572 51.491 124.145 51.743 123.76C51.988 123.375 52.331 123.06 52.765 122.787C53.206 122.514 53.752 122.311 54.403 122.157C55.047 122.01 55.754 121.94 56.594 121.94C57.168 121.94 57.77 121.982 58.372 122.066C59.002 122.15 59.646 122.283 60.283 122.465C60.927 122.64 61.557 122.864 62.194 123.137C62.796 123.41 63.356 123.725 63.832 124.082V117.656C62.796 117.257 61.641 116.956 60.416 116.767C59.184 116.578 57.819 116.48 56.181 116.48C54.543 116.48 53.038 116.655 51.533 116.998C50.028 117.341 48.796 117.887 47.704 118.636C46.598 119.371 45.793 120.274 45.107 121.506C44.463 122.654 44.148 123.97 44.148 125.608C44.148 127.659 44.736 129.437 45.926 130.802C47.102 132.307 48.936 133.399 51.26 134.491C52.205 134.876 53.038 135.254 53.857 135.625C54.676 135.996 55.362 136.374 55.908 136.773C56.496 137.172 56.958 137.606 57.273 138.075C57.616 138.537 57.791 139.09 57.791 139.713C57.791 140.154 57.686 140.56 57.476 140.945C57.266 141.33 56.944 141.659 56.503 141.932C56.062 142.205 55.53 142.422 54.865 142.59C54.221 142.737 53.5 142.821 52.541 142.821C51.036 142.821 49.531 142.562 48.166 142.044C46.661 141.526 45.296 140.742 44.064 139.72L44.337 139.643ZM32.857 122.829H41.607V117.222H17.135V122.829H25.885V147.847H32.857V122.829Z" fill="white"/>
</g>
<g clip-path="url(#clip1_9_88)">
<path d="M154.11 136.5C154.659 135.655 155 134.701 155 133.847V104.153C155 103.297 154.659 102.345 154.11 101.5L120.001 119L154.11 136.5Z" fill="#00599C"/>
<path d="M123.031 153.358L151.97 138.511C152.802 138.084 153.561 137.345 154.11 136.5L120.001 119L85.8927 136.5C86.4415 137.345 87.2003 138.084 88.0327 138.511L116.971 153.358C118.636 154.215 121.364 154.215 123.031 153.358Z" fill="#004482"/>
<path d="M154.11 101.5C153.561 100.655 152.802 99.9156 151.97 99.4886L123.031 84.6416C121.364 83.7853 118.636 83.7853 116.969 84.6416L88.0301 99.4886C86.3628 100.343 85 102.443 85 104.153V133.847C85 134.703 85.3413 135.655 85.8901 136.5L119.999 119L154.11 101.5Z" fill="#659AD2"/>
<path d="M119.999 139.734C107.133 139.734 96.6663 130.433 96.6663 119C96.6663 107.567 107.135 98.266 119.999 98.266C128.301 98.266 136.045 102.235 140.204 108.626L130.108 113.82C128.026 110.621 124.153 108.633 119.999 108.633C113.566 108.633 108.332 113.283 108.332 119C108.332 124.717 113.566 129.367 119.999 129.367C124.15 129.367 128.026 127.379 130.108 124.18L140.207 129.372C136.045 135.765 128.301 139.734 119.999 139.734Z" fill="white"/>
<path d="M143.334 117.847H140.74V115.544H138.148V117.847H135.556V120.153H138.148V122.456H140.74V120.153H143.334V117.847ZM153.054 117.847H150.463V115.544H147.871V117.847H145.277V120.153H147.871V122.456H150.463V120.153H153.054V117.847Z" fill="white"/>
</g>
<path d="M204 84L234.311 101.5V136.5L204 154L173.689 136.5V101.5L204 84Z" fill="url(#paint0_linear_9_88)"/>
<path d="M189.44 134L201.824 100.4H206.096L218.432 134H214.16L211.088 125.36H196.784L193.664 134H189.44ZM197.984 122.096H209.888L203.936 105.488L197.984 122.096Z" fill="white"/>
<path d="M231.084 0.296997H176.084C171.944 0.296997 168.584 3.65646 168.584 7.79726V62.7967C168.584 66.9375 171.944 70.297 176.084 70.297H231.084C235.225 70.297 238.584 66.9375 238.584 62.7967V7.79726C238.584 3.65646 235.225 0.296997 231.084 0.296997ZM206.678 54.8906C206.678 61.7034 202.678 64.8127 196.85 64.8127C191.584 64.8127 188.537 62.0938 186.975 58.7967L192.334 55.5626C193.365 57.3909 194.303 58.9375 196.569 58.9375C198.725 58.9375 200.1 58.0938 200.1 54.7967V32.4378H206.678V54.8906ZM222.24 64.8127C216.131 64.8127 212.178 61.9066 210.256 58.0938L215.616 54.9999C217.021 57.297 218.865 58.9999 222.1 58.9999C224.818 58.9999 226.569 57.641 226.569 55.7503C226.569 53.5002 224.787 52.7034 221.772 51.3749L220.131 50.6719C215.381 48.6565 212.24 46.1093 212.24 40.7503C212.24 35.8127 216.006 32.0629 221.865 32.0629C226.053 32.0629 229.053 33.5157 231.209 37.3285L226.084 40.6095C224.959 38.5941 223.74 37.7973 221.85 37.7973C219.928 37.7973 218.709 39.0159 218.709 40.6095C218.709 42.5781 219.928 43.3749 222.756 44.6095L224.396 45.3125C229.991 47.7034 233.131 50.1562 233.131 55.6565C233.131 61.5626 228.475 64.8127 222.24 64.8127Z" fill="#333330"/>
<path d="M84.5841 0.296997L90.9463 62.1407L119.584 70.297L148.222 62.1407L154.584 0.296997H84.5841ZM141.66 12.7967L140.784 20.1877L119.766 27.8906L119.712 27.9066H140.037L137.704 50.8127L119.803 55.297L101.792 50.7343L100.626 39.1877H109.54L110.123 45.1722L119.712 47.2501L129.683 44.8437L130.357 35.2191L100.043 35.1407V35.1253L100.006 35.1407L99.3494 27.9066L119.784 20.6095L120.97 20.1877H98.5661L97.5083 12.7967H141.66Z" fill="#2965F1"/>
<path d="M477.76 22.9812C477.021 22.7002 476.283 22.4346 475.545 22.1845C475.668 21.6064 475.777 21.0283 475.887 20.4502C477.568 11.1381 476.461 3.6543 472.729 1.18564C469.133 -1.17369 463.268 1.2795 457.334 7.18531C456.746 7.76341 456.172 8.37297 455.625 8.982C455.256 8.57616 454.873 8.16978 454.49 7.77887C448.27 1.46669 442.035 -1.18917 438.303 1.29496C434.721 3.66976 433.655 10.7163 435.158 19.5286C435.309 20.4032 435.473 21.2629 435.664 22.1375C434.789 22.4191 433.928 22.7316 433.121 23.0596C425.821 25.9501 420.584 30.512 420.584 35.2307C420.584 40.1056 426.162 44.996 433.75 47.9644C434.365 48.1985 434.981 48.4331 435.609 48.6363C435.405 49.5739 435.227 50.4954 435.062 51.4484C433.627 60.1199 434.748 66.9948 438.33 69.3536C442.021 71.7913 448.229 69.2912 454.271 63.2446C454.75 62.7603 455.229 62.2606 455.707 61.7295C456.309 62.4009 456.937 63.0414 457.567 63.6664C463.418 69.4165 469.201 71.7444 472.77 69.385C476.461 66.9478 477.664 59.5573 476.106 50.5578C475.983 49.8704 475.846 49.1675 475.696 48.4486C476.133 48.3083 476.557 48.1521 476.981 47.9958C484.869 45.0115 490.584 40.1835 490.584 35.2307C490.584 30.4965 485.197 25.9032 477.76 22.9812ZM459.262 9.71636C464.348 4.65425 469.092 2.66982 471.252 4.09161C473.562 5.60726 474.451 11.7323 473.002 19.7782C472.906 20.3099 472.811 20.8251 472.687 21.3408C469.652 20.5595 466.576 19.9974 463.487 19.6849C461.709 16.7784 459.768 13.9977 457.662 11.3883C458.196 10.8102 458.715 10.2635 459.262 9.71636ZM443.443 43.3395C444.141 44.6989 444.852 46.0583 445.604 47.3863C443.471 47.1207 441.352 46.7303 439.26 46.2146C439.862 43.9646 440.613 41.6367 441.488 39.2619C442.118 40.6368 442.76 41.9962 443.443 43.3395ZM439.301 24.5438C441.27 24.0436 443.362 23.6377 445.535 23.3252C444.811 24.6217 444.1 25.9501 443.43 27.2935C442.76 28.6214 442.104 29.9808 441.488 31.3557C440.627 29.0278 439.902 26.7469 439.301 24.5438ZM443.047 35.3091C443.949 33.1529 444.934 31.0432 445.973 28.9654C447.012 26.8871 448.133 24.8718 449.309 22.8879C451.359 22.7156 453.451 22.6218 455.584 22.6218C457.717 22.6218 459.822 22.7156 461.859 22.8879C463.021 24.8563 464.129 26.8717 465.182 28.9339C466.234 30.9968 467.219 33.106 468.149 35.2461C467.233 37.4023 466.248 39.5275 465.196 41.6207C464.156 43.699 463.049 45.7144 461.887 47.7142C459.85 47.886 457.731 47.9644 455.584 47.9644C453.437 47.9644 451.359 47.8865 449.35 47.7457C448.16 45.7613 447.039 43.7305 445.987 41.6522C444.934 39.5744 443.963 37.4647 443.047 35.3091ZM467.738 43.3086C468.436 41.9332 469.092 40.5429 469.734 39.1366C470.609 41.4021 471.375 43.699 472.045 46.0583C469.926 46.605 467.78 47.0268 465.619 47.3084C466.358 45.9959 467.055 44.652 467.738 43.3086ZM469.707 31.3557C469.065 29.9808 468.408 28.606 467.725 27.2626C467.055 25.9341 466.358 24.6217 465.633 23.3252C467.834 23.6377 469.94 24.0596 471.908 24.5753C471.28 26.8871 470.541 29.1371 469.707 31.3557ZM455.612 13.7785C457.047 15.5598 458.4 17.4349 459.658 19.3724C456.951 19.2316 454.231 19.2316 451.524 19.3724C452.863 17.3565 454.244 15.4819 455.612 13.7785ZM439.752 4.20093C442.049 2.66982 447.149 4.85743 452.521 10.2945C452.863 10.6384 453.205 11.0134 453.561 11.3883C451.442 13.9977 449.487 16.7784 447.696 19.6849C444.606 19.9974 441.543 20.544 438.508 21.3098C438.33 20.5126 438.18 19.7003 438.03 18.8881C436.744 11.3259 437.592 5.62272 439.752 4.20093ZM436.402 45.3864C435.828 45.1986 435.268 44.996 434.707 44.7768C431.795 43.7305 428.487 42.074 426.094 39.9024C424.713 38.8086 423.783 37.1212 423.524 35.2307C423.524 32.3716 427.844 28.7153 434.078 26.2312C434.858 25.9187 435.65 25.6376 436.443 25.372C437.373 28.7622 438.494 32.09 439.793 35.3091C438.481 38.5745 437.346 41.9492 436.402 45.3864ZM452.344 60.698C450.088 63.0574 447.477 64.9319 444.633 66.2135C443.115 67.0412 441.365 67.1196 439.807 66.4167C437.633 64.9789 436.731 59.4634 437.961 52.042C438.112 51.1674 438.275 50.2922 438.467 49.4331C441.53 50.1829 444.619 50.6986 447.75 50.9642C449.555 53.8856 451.537 56.6828 453.656 59.3077C453.219 59.792 452.781 60.2607 452.344 60.698ZM455.693 56.9015C454.299 55.1826 452.905 53.2766 451.551 51.2298C452.863 51.2922 454.217 51.3236 455.584 51.3236C456.993 51.3236 458.373 51.2922 459.74 51.2143C458.483 53.1982 457.129 55.0888 455.693 56.9015ZM473.562 61.5887C473.44 63.4947 472.619 65.2759 471.307 66.4791C469.133 67.9163 464.498 66.0412 459.494 61.1354C458.92 60.5733 458.346 59.9637 457.758 59.3387C459.85 56.6983 461.777 53.9016 463.527 50.9642C466.658 50.6671 469.775 50.1205 472.852 49.3238C472.988 49.9643 473.112 50.6047 473.221 51.2298C473.891 54.6045 474 58.1201 473.562 61.5887ZM476.051 44.7928C475.668 44.9331 475.285 45.0739 474.889 45.1986C473.932 41.793 472.756 38.4646 471.402 35.2307C472.715 32.0431 473.822 28.7622 474.752 25.4029C475.463 25.6376 476.146 25.8872 476.803 26.1373C483.174 28.6374 487.645 32.3556 487.645 35.1992C487.645 38.262 482.873 42.2148 476.051 44.7928ZM455.584 42.4489C459.043 42.4489 461.846 39.2459 461.846 35.2931C461.846 31.3402 459.043 28.1372 455.584 28.1372C452.125 28.1372 449.322 31.3402 449.322 35.2931C449.322 39.2459 452.125 42.4489 455.584 42.4489Z" fill="#61DBFB"/>
<path fill-rule="evenodd" clip-rule="evenodd" d="M270.084 23.6303C272.417 8.07555 278.251 0.296997 287.584 0.296997C301.584 0.296997 303.334 17.797 310.334 20.7137C315.001 22.6589 319.084 19.7422 322.584 11.9637C320.251 27.5184 314.417 35.297 305.084 35.297C291.084 35.297 289.334 17.797 282.334 14.8803C277.667 12.9351 273.584 15.8518 270.084 23.6303ZM252.584 58.6303C254.917 43.0756 260.751 35.297 270.084 35.297C284.084 35.297 285.834 52.797 292.834 55.7137C297.501 57.6589 301.584 54.7422 305.084 46.9637C302.751 62.5184 296.917 70.297 287.584 70.297C273.584 70.297 271.834 52.797 264.834 49.8803C260.167 47.9351 256.084 50.8518 252.584 58.6303Z" fill="#2383AE"/>
<path d="M0.584106 0.296997L6.94633 62.1407L35.4933 70.297L64.2219 62.1407L70.5841 0.296997H0.584106ZM56.7664 20.2815H23.261L24.0083 27.9999H56.0191L53.5396 51.1877L35.6936 55.4063V55.4533H35.4933L17.5011 51.1877L16.4072 39.3439H25.1021L25.7405 45.297L35.4933 47.5626L45.2821 45.297L46.3759 35.5781H15.9511L13.6178 12.8282H57.5685L56.7664 20.2815Z" fill="#E34F26"/>
<path d="M388.517 65.9351C388.257 66.0718 388.285 66.1128 388.531 65.9898L388.736 65.853C388.736 65.812 388.736 65.812 388.517 65.9351ZM389.036 65.6479L389.064 65.6889L389.214 65.5795L389.036 65.6479ZM389.378 65.4428L389.405 65.4838L389.556 65.3744L389.378 65.4428ZM389.72 65.2377L389.733 65.2651L389.884 65.1557L389.72 65.2377ZM390.184 64.9369C389.952 65.101 389.856 65.1967 390.075 65.0873L390.43 64.8001L390.184 64.9369ZM369.274 0.314707C369.11 0.328381 368.632 0.369402 368.222 0.410423C358.273 1.31289 348.98 6.673 343.076 14.9183C339.809 19.4306 337.705 24.695 336.898 30.2055C336.625 32.1335 336.584 32.6942 336.584 35.3059C336.584 37.9175 336.625 38.4782 336.898 40.3925C338.798 53.5466 348.146 64.5814 360.829 68.6698C363.111 69.3945 365.502 69.9005 368.222 70.215C369.274 70.3243 373.853 70.3243 374.919 70.215C379.62 69.6953 383.597 68.5331 387.533 66.523C388.134 66.2222 388.244 66.1402 388.175 66.0718C386.248 63.5285 384.362 60.9852 382.476 58.4282L376.887 50.8803L369.889 40.5019C367.552 37.0287 365.215 33.5693 362.824 30.1235C362.797 30.1235 362.769 34.7316 362.756 40.3651C362.728 50.2239 362.728 50.6205 362.605 50.8529C362.482 51.1264 362.277 51.3588 362.004 51.4819C361.785 51.5776 361.594 51.605 360.555 51.605H359.366L359.052 51.4135C358.861 51.2905 358.697 51.1127 358.601 50.9076L358.451 50.5931L358.464 36.8783L358.492 23.1636L358.71 22.8901L359.216 22.4799C359.503 22.3431 359.612 22.3158 360.801 22.3158C362.195 22.3158 362.414 22.3705 362.783 22.767C365.612 26.9922 368.441 31.2311 371.215 35.4836C375.766 42.3752 381.971 51.7827 385.018 56.4045L390.567 64.8001L390.84 64.6224C393.505 62.8448 395.924 60.7254 398.029 58.3051C402.443 53.2595 405.299 47.0516 406.27 40.4198C406.557 38.4918 406.584 37.9312 406.584 35.3195C406.584 32.7078 406.543 32.1472 406.27 30.2329C404.329 17.0651 394.981 6.03034 382.312 1.94188C379.948 1.18983 377.502 0.683898 375.042 0.424097C374.372 0.342054 369.848 0.260012 369.274 0.314707ZM383.597 21.4954C383.925 21.6458 384.171 21.9466 384.294 22.2884C384.349 22.4662 384.362 26.2812 384.349 34.8409L384.321 47.1473L382.162 43.8246L379.989 40.5019V31.5729C379.989 25.7752 380.016 22.5346 380.044 22.3705C380.139 22.0013 380.399 21.7005 380.727 21.509C381 21.3723 381.096 21.3586 382.189 21.3586C383.201 21.3449 383.365 21.3586 383.597 21.4954Z" fill="black"/>
<defs>
<linearGradient id="paint0_linear_9_88" x1="204" y1="84" x2="204" y2="154" gradientUnits="userSpaceOnUse">
<stop stop-color="#EE3333"/>
<stop offset="1" stop-color="#7D0000"/>
</linearGradient>
<clipPath id="clip0_9_88">
<rect width="70" height="70" fill="white" transform="translate(1 84)"/>
</clipPath>
<clipPath id="clip1_9_88">
<rect width="70" height="70" fill="white" transform="translate(85 84)"/>
</clipPath>
</defs>
</svg>
