<svg width="504" height="166" viewBox="0 0 504 166" fill="none" xmlns="http://www.w3.org/2000/svg">
<rect width="504" height="166" fill="white"/>
<g clip-path="url(#clip0_9_88)">
<path d="M11.839 90H68.168C71.941 90 75.007 93.059 75.007 96.839V153.168C75.007 156.941 71.948 160.007 68.168 160.007H11.839C8.059 160 5 156.941 5 153.161V96.839C5 93.059 8.059 90 11.839 90Z" fill="#3178C6"/>
<path fill-rule="evenodd" clip-rule="evenodd" d="M48.337 145.643V152.482C49.443 153.056 50.801 153.483 52.299 153.77C53.797 154.057 55.442 154.197 57.087 154.197C58.732 154.197 60.23 154.05 61.735 153.735C63.24 153.42 64.472 152.902 65.564 152.23C66.67 151.502 67.615 150.592 68.161 149.36C68.707 148.128 69.134 146.763 69.134 144.985C69.134 143.739 68.945 142.661 68.574 141.702C68.203 140.743 67.671 139.924 66.936 139.238C66.236 138.51 65.431 137.873 64.472 137.327C63.513 136.781 62.421 136.207 61.189 135.689C60.286 135.318 59.551 134.961 58.725 134.611C58.011 134.254 57.402 133.897 56.947 133.547C56.443 133.176 56.058 132.798 55.785 132.399C55.512 131.986 55.372 131.538 55.372 131.034C55.372 130.572 55.491 130.145 55.743 129.76C55.988 129.375 56.331 129.06 56.765 128.787C57.206 128.514 57.752 128.311 58.403 128.157C59.047 128.01 59.754 127.94 60.594 127.94C61.168 127.94 61.77 127.982 62.372 128.066C63.002 128.15 63.646 128.283 64.283 128.465C64.927 128.64 65.557 128.864 66.194 129.137C66.796 129.41 67.356 129.725 67.832 130.082V123.656C66.796 123.257 65.641 122.956 64.416 122.767C63.184 122.578 61.819 122.48 60.181 122.48C58.543 122.48 57.038 122.655 55.533 122.998C54.028 123.341 52.796 123.887 51.704 124.636C50.598 125.371 49.793 126.274 49.107 127.506C48.463 128.654 48.148 129.97 48.148 131.608C48.148 133.659 48.736 135.437 49.926 136.802C51.102 138.307 52.936 139.399 55.26 140.491C56.205 140.876 57.038 141.254 57.857 141.625C58.676 141.996 59.362 142.374 59.908 142.773C60.496 143.172 60.958 143.606 61.273 144.075C61.616 144.537 61.791 145.09 61.791 145.713C61.791 146.154 61.686 146.56 61.476 146.945C61.266 147.33 60.944 147.659 60.503 147.932C60.062 148.205 59.53 148.422 58.865 148.59C58.221 148.737 57.5 148.821 56.541 148.821C55.036 148.821 53.531 148.562 52.166 148.044C50.661 147.526 49.296 146.742 48.064 145.72L48.337 145.643ZM36.857 128.829H45.607V123.222H21.135V128.829H29.885V153.847H36.857V128.829Z" fill="white"/>
</g>
<g clip-path="url(#clip1_9_88)">
<path d="M158.11 142.5C158.659 141.655 159 140.701 159 139.847V110.153C159 109.297 158.659 108.345 158.11 107.5L124.001 125L158.11 142.5Z" fill="#00599C"/>
<path d="M127.031 159.358L155.97 144.511C156.802 144.084 157.561 143.345 158.11 142.5L124.001 125L89.8927 142.5C90.4415 143.345 91.2003 144.084 92.0327 144.511L120.971 159.358C122.636 160.215 125.364 160.215 127.031 159.358Z" fill="#004482"/>
<path d="M158.11 107.5C157.561 106.655 156.802 105.916 155.97 105.489L127.031 90.6416C125.364 89.7853 122.636 89.7853 120.969 90.6416L92.0301 105.489C90.3628 106.343 89 108.443 89 110.153V139.847C89 140.703 89.3413 141.655 89.8901 142.5L123.999 125L158.11 107.5Z" fill="#659AD2"/>
<path d="M123.999 145.734C111.133 145.734 100.666 136.433 100.666 125C100.666 113.567 111.135 104.266 123.999 104.266C132.301 104.266 140.045 108.235 144.204 114.626L134.108 119.82C132.026 116.621 128.153 114.633 123.999 114.633C117.566 114.633 112.332 119.283 112.332 125C112.332 130.717 117.566 135.367 123.999 135.367C128.15 135.367 132.026 133.379 134.108 130.18L144.207 135.372C140.045 141.765 132.301 145.734 123.999 145.734Z" fill="white"/>
<path d="M147.334 123.847H144.74V121.544H142.148V123.847H139.556V126.153H142.148V128.456H144.74V126.153H147.334V123.847ZM157.054 123.847H154.463V121.544H151.871V123.847H149.277V126.153H151.871V128.456H154.463V126.153H157.054V123.847Z" fill="white"/>
</g>
<path d="M208 90L238.311 107.5V142.5L208 160L177.689 142.5V107.5L208 90Z" fill="url(#paint0_linear_9_88)"/>
<path d="M193.44 140L205.824 106.4H210.096L222.432 140H218.16L215.088 131.36H200.784L197.664 140H193.44ZM201.984 128.096H213.888L207.936 111.488L201.984 128.096Z" fill="white"/>
<path d="M235.084 6.297H180.084C175.944 6.297 172.584 9.65646 172.584 13.7973V68.7967C172.584 72.9375 175.944 76.297 180.084 76.297H235.084C239.225 76.297 242.584 72.9375 242.584 68.7967V13.7973C242.584 9.65646 239.225 6.297 235.084 6.297ZM210.678 60.8906C210.678 67.7034 206.678 70.8127 200.85 70.8127C195.584 70.8127 192.537 68.0938 190.975 64.7967L196.334 61.5626C197.365 63.3909 198.303 64.9375 200.569 64.9375C202.725 64.9375 204.1 64.0938 204.1 60.7967V38.4378H210.678V60.8906ZM226.24 70.8127C220.131 70.8127 216.178 67.9066 214.256 64.0938L219.616 60.9999C221.021 63.297 222.865 64.9999 226.1 64.9999C228.818 64.9999 230.569 63.641 230.569 61.7503C230.569 59.5002 228.787 58.7034 225.772 57.3749L224.131 56.6719C219.381 54.6565 216.24 52.1093 216.24 46.7503C216.24 41.8127 220.006 38.0629 225.865 38.0629C230.053 38.0629 233.053 39.5157 235.209 43.3285L230.084 46.6095C228.959 44.5941 227.74 43.7973 225.85 43.7973C223.928 43.7973 222.709 45.0159 222.709 46.6095C222.709 48.5781 223.928 49.3749 226.756 50.6095L228.396 51.3125C233.991 53.7034 237.131 56.1562 237.131 61.6565C237.131 67.5626 232.475 70.8127 226.24 70.8127Z" fill="#333330"/>
<path d="M88.5841 6.297L94.9463 68.1407L123.584 76.297L152.222 68.1407L158.584 6.297H88.5841ZM145.66 18.7967L144.784 26.1877L123.766 33.8906L123.712 33.9066H144.037L141.704 56.8127L123.803 61.297L105.792 56.7343L104.626 45.1877H113.54L114.123 51.1722L123.712 53.2501L133.683 50.8437L134.357 41.2191L104.043 41.1407V41.1253L104.006 41.1407L103.349 33.9066L123.784 26.6095L124.97 26.1877H102.566L101.508 18.7967H145.66Z" fill="#2965F1"/>
<path d="M481.76 28.9812C481.021 28.7002 480.283 28.4346 479.545 28.1845C479.668 27.6064 479.777 27.0283 479.887 26.4502C481.568 17.1381 480.461 9.6543 476.729 7.18564C473.133 4.82631 467.268 7.2795 461.334 13.1853C460.746 13.7634 460.172 14.373 459.625 14.982C459.256 14.5762 458.873 14.1698 458.49 13.7789C452.27 7.46669 446.035 4.81083 442.303 7.29496C438.721 9.66976 437.655 16.7163 439.158 25.5286C439.309 26.4032 439.473 27.2629 439.664 28.1375C438.789 28.4191 437.928 28.7316 437.121 29.0596C429.821 31.9501 424.584 36.512 424.584 41.2307C424.584 46.1056 430.162 50.996 437.75 53.9644C438.365 54.1985 438.981 54.4331 439.609 54.6363C439.405 55.5739 439.227 56.4954 439.062 57.4484C437.627 66.1199 438.748 72.9948 442.33 75.3536C446.021 77.7913 452.229 75.2912 458.271 69.2446C458.75 68.7603 459.229 68.2606 459.707 67.7295C460.309 68.4009 460.937 69.0414 461.567 69.6664C467.418 75.4165 473.201 77.7444 476.77 75.385C480.461 72.9478 481.664 65.5573 480.106 56.5578C479.983 55.8704 479.846 55.1675 479.696 54.4486C480.133 54.3083 480.557 54.1521 480.981 53.9958C488.869 51.0115 494.584 46.1835 494.584 41.2307C494.584 36.4965 489.197 31.9032 481.76 28.9812ZM463.262 15.7164C468.348 10.6542 473.092 8.66982 475.252 10.0916C477.562 11.6073 478.451 17.7323 477.002 25.7782C476.906 26.3099 476.811 26.8251 476.687 27.3408C473.652 26.5595 470.576 25.9974 467.487 25.6849C465.709 22.7784 463.768 19.9977 461.662 17.3883C462.196 16.8102 462.715 16.2635 463.262 15.7164ZM447.443 49.3395C448.141 50.6989 448.852 52.0583 449.604 53.3863C447.471 53.1207 445.352 52.7303 443.26 52.2146C443.862 49.9646 444.613 47.6367 445.488 45.2619C446.118 46.6368 446.76 47.9962 447.443 49.3395ZM443.301 30.5438C445.27 30.0436 447.362 29.6377 449.535 29.3252C448.811 30.6217 448.1 31.9501 447.43 33.2935C446.76 34.6214 446.104 35.9808 445.488 37.3557C444.627 35.0278 443.902 32.7469 443.301 30.5438ZM447.047 41.3091C447.949 39.1529 448.934 37.0432 449.973 34.9654C451.012 32.8871 452.133 30.8718 453.309 28.8879C455.359 28.7156 457.451 28.6218 459.584 28.6218C461.717 28.6218 463.822 28.7156 465.859 28.8879C467.021 30.8563 468.129 32.8717 469.182 34.9339C470.234 36.9968 471.219 39.106 472.149 41.2461C471.233 43.4023 470.248 45.5275 469.196 47.6207C468.156 49.699 467.049 51.7144 465.887 53.7142C463.85 53.886 461.731 53.9644 459.584 53.9644C457.437 53.9644 455.359 53.8865 453.35 53.7457C452.16 51.7613 451.039 49.7305 449.987 47.6522C448.934 45.5744 447.963 43.4647 447.047 41.3091ZM471.738 49.3086C472.436 47.9332 473.092 46.5429 473.734 45.1366C474.609 47.4021 475.375 49.699 476.045 52.0583C473.926 52.605 471.78 53.0268 469.619 53.3084C470.358 51.9959 471.055 50.652 471.738 49.3086ZM473.707 37.3557C473.065 35.9808 472.408 34.606 471.725 33.2626C471.055 31.9341 470.358 30.6217 469.633 29.3252C471.834 29.6377 473.94 30.0596 475.908 30.5753C475.28 32.8871 474.541 35.1371 473.707 37.3557ZM459.612 19.7785C461.047 21.5598 462.4 23.4349 463.658 25.3724C460.951 25.2316 458.231 25.2316 455.524 25.3724C456.863 23.3565 458.244 21.4819 459.612 19.7785ZM443.752 10.2009C446.049 8.66982 451.149 10.8574 456.521 16.2945C456.863 16.6384 457.205 17.0134 457.561 17.3883C455.442 19.9977 453.487 22.7784 451.696 25.6849C448.606 25.9974 445.543 26.544 442.508 27.3098C442.33 26.5126 442.18 25.7003 442.03 24.8881C440.744 17.3259 441.592 11.6227 443.752 10.2009ZM440.402 51.3864C439.828 51.1986 439.268 50.996 438.707 50.7768C435.795 49.7305 432.487 48.074 430.094 45.9024C428.713 44.8086 427.783 43.1212 427.524 41.2307C427.524 38.3716 431.844 34.7153 438.078 32.2312C438.858 31.9187 439.65 31.6376 440.443 31.372C441.373 34.7622 442.494 38.09 443.793 41.3091C442.481 44.5745 441.346 47.9492 440.402 51.3864ZM456.344 66.698C454.088 69.0574 451.477 70.9319 448.633 72.2135C447.115 73.0412 445.365 73.1196 443.807 72.4167C441.633 70.9789 440.731 65.4634 441.961 58.042C442.112 57.1674 442.275 56.2922 442.467 55.4331C445.53 56.1829 448.619 56.6986 451.75 56.9642C453.555 59.8856 455.537 62.6828 457.656 65.3077C457.219 65.792 456.781 66.2607 456.344 66.698ZM459.693 62.9015C458.299 61.1826 456.905 59.2766 455.551 57.2298C456.863 57.2922 458.217 57.3236 459.584 57.3236C460.993 57.3236 462.373 57.2922 463.74 57.2143C462.483 59.1982 461.129 61.0888 459.693 62.9015ZM477.562 67.5887C477.44 69.4947 476.619 71.2759 475.307 72.4791C473.133 73.9163 468.498 72.0412 463.494 67.1354C462.92 66.5733 462.346 65.9637 461.758 65.3387C463.85 62.6983 465.777 59.9016 467.527 56.9642C470.658 56.6671 473.775 56.1205 476.852 55.3238C476.988 55.9643 477.112 56.6047 477.221 57.2298C477.891 60.6045 478 64.1201 477.562 67.5887ZM480.051 50.7928C479.668 50.9331 479.285 51.0739 478.889 51.1986C477.932 47.793 476.756 44.4646 475.402 41.2307C476.715 38.0431 477.822 34.7622 478.752 31.4029C479.463 31.6376 480.146 31.8872 480.803 32.1373C487.174 34.6374 491.645 38.3556 491.645 41.1992C491.645 44.262 486.873 48.2148 480.051 50.7928ZM459.584 48.4489C463.043 48.4489 465.846 45.2459 465.846 41.2931C465.846 37.3402 463.043 34.1372 459.584 34.1372C456.125 34.1372 453.322 37.3402 453.322 41.2931C453.322 45.2459 456.125 48.4489 459.584 48.4489Z" fill="#61DBFB"/>
<path fill-rule="evenodd" clip-rule="evenodd" d="M274.084 29.6303C276.417 14.0756 282.251 6.297 291.584 6.297C305.584 6.297 307.334 23.797 314.334 26.7137C319.001 28.6589 323.084 25.7422 326.584 17.9637C324.251 33.5184 318.417 41.297 309.084 41.297C295.084 41.297 293.334 23.797 286.334 20.8803C281.667 18.9351 277.584 21.8518 274.084 29.6303ZM256.584 64.6303C258.917 49.0756 264.751 41.297 274.084 41.297C288.084 41.297 289.834 58.797 296.834 61.7137C301.501 63.6589 305.584 60.7422 309.084 52.9637C306.751 68.5184 300.917 76.297 291.584 76.297C277.584 76.297 275.834 58.797 268.834 55.8803C264.167 53.9351 260.084 56.8518 256.584 64.6303Z" fill="#2383AE"/>
<path d="M4.58411 6.297L10.9463 68.1407L39.4933 76.297L68.2219 68.1407L74.5841 6.297H4.58411ZM60.7664 26.2815H27.261L28.0083 33.9999H60.0191L57.5396 57.1877L39.6936 61.4063V61.4533H39.4933L21.5011 57.1877L20.4072 45.3439H29.1021L29.7405 51.297L39.4933 53.5626L49.2821 51.297L50.3759 41.5781H19.9511L17.6178 18.8282H61.5685L60.7664 26.2815Z" fill="#E34F26"/>
<path d="M392.517 71.9351C392.257 72.0718 392.285 72.1128 392.531 71.9898L392.736 71.853C392.736 71.812 392.736 71.812 392.517 71.9351ZM393.036 71.6479L393.064 71.6889L393.214 71.5795L393.036 71.6479ZM393.378 71.4428L393.405 71.4838L393.556 71.3744L393.378 71.4428ZM393.72 71.2377L393.733 71.2651L393.884 71.1557L393.72 71.2377ZM394.184 70.9369C393.952 71.101 393.856 71.1967 394.075 71.0873L394.43 70.8001L394.184 70.9369ZM373.274 6.31471C373.11 6.32838 372.632 6.3694 372.222 6.41042C362.273 7.31289 352.98 12.673 347.076 20.9183C343.809 25.4306 341.705 30.695 340.898 36.2055C340.625 38.1335 340.584 38.6942 340.584 41.3059C340.584 43.9175 340.625 44.4782 340.898 46.3925C342.798 59.5466 352.146 70.5814 364.829 74.6698C367.111 75.3945 369.502 75.9005 372.222 76.215C373.274 76.3243 377.853 76.3243 378.919 76.215C383.62 75.6953 387.597 74.5331 391.533 72.523C392.134 72.2222 392.244 72.1402 392.175 72.0718C390.248 69.5285 388.362 66.9852 386.476 64.4282L380.887 56.8803L373.889 46.5019C371.552 43.0287 369.215 39.5693 366.824 36.1235C366.797 36.1235 366.769 40.7316 366.756 46.3651C366.728 56.2239 366.728 56.6205 366.605 56.8529C366.482 57.1264 366.277 57.3588 366.004 57.4819C365.785 57.5776 365.594 57.605 364.555 57.605H363.366L363.052 57.4135C362.861 57.2905 362.697 57.1127 362.601 56.9076L362.451 56.5931L362.464 42.8783L362.492 29.1636L362.71 28.8901L363.216 28.4799C363.503 28.3431 363.612 28.3158 364.801 28.3158C366.195 28.3158 366.414 28.3705 366.783 28.767C369.612 32.9922 372.441 37.2311 375.215 41.4836C379.766 48.3752 385.971 57.7827 389.018 62.4045L394.567 70.8001L394.84 70.6224C397.505 68.8448 399.924 66.7254 402.029 64.3051C406.443 59.2595 409.299 53.0516 410.27 46.4198C410.557 44.4918 410.584 43.9312 410.584 41.3195C410.584 38.7078 410.543 38.1472 410.27 36.2329C408.329 23.0651 398.981 12.0303 386.312 7.94188C383.948 7.18983 381.502 6.6839 379.042 6.4241C378.372 6.34205 373.848 6.26001 373.274 6.31471ZM387.597 27.4954C387.925 27.6458 388.171 27.9466 388.294 28.2884C388.349 28.4662 388.362 32.2812 388.349 40.8409L388.321 53.1473L386.162 49.8246L383.989 46.5019V37.5729C383.989 31.7752 384.016 28.5346 384.044 28.3705C384.139 28.0013 384.399 27.7005 384.727 27.509C385 27.3723 385.096 27.3586 386.189 27.3586C387.201 27.3449 387.365 27.3586 387.597 27.4954Z" fill="black"/>
<defs>
<linearGradient id="paint0_linear_9_88" x1="208" y1="90" x2="208" y2="160" gradientUnits="userSpaceOnUse">
<stop stop-color="#EE3333"/>
<stop offset="1" stop-color="#7D0000"/>
</linearGradient>
<clipPath id="clip0_9_88">
<rect width="70" height="70" fill="white" transform="translate(5 90)"/>
</clipPath>
<clipPath id="clip1_9_88">
<rect width="70" height="70" fill="white" transform="translate(89 90)"/>
</clipPath>
</defs>
</svg>
